HIERARCHY
ROOT Hips
{
	OFFSET 0.00000 0.00000 0.00000
	CHANNELS 6 Xposition Yposition Zposition Zrotation Yrotation Xrotation 
	JOINT LHipJoint
	{
		OFFSET 0 0 0
		CHANNELS 3 Zrotation Yrotation Xrotation
		JOINT LeftUpLeg
		{
			OFFSET 1.44960 -1.75505 0.85172
			CHANNELS 3 Zrotation Yrotation Xrotation
			JOINT LeftLeg
			{
				OFFSET 2.40573 -6.60971 0.00000
				CHANNELS 3 Zrotation Yrotation Xrotation
				JOINT LeftFoot
				{
					OFFSET 2.58773 -7.10974 0.00000
					CHANNELS 3 Zrotation Yrotation Xrotation
					JOINT LeftToeBase
					{
						OFFSET 0.18252 -0.50147 1.77316
						CHANNELS 3 Zrotation Yrotation Xrotation
						End Site
						{
							OFFSET 0.00000 -0.00000 0.92990
						}
					}
				}
			}
		}
	}
	JOINT RHipJoint
	{
		OFFSET 0 0 0
		CHANNELS 3 Zrotation Yrotation Xrotation
		JOINT RightUpLeg
		{
			OFFSET -1.40744 -1.75505 0.85172
			CHANNELS 3 Zrotation Yrotation Xrotation
			JOINT RightLeg
			{
				OFFSET -2.43714 -6.69600 0.00000
				CHANNELS 3 Zrotation Yrotation Xrotation
				JOINT RightFoot
				{
					OFFSET -2.51650 -6.91404 0.00000
					CHANNELS 3 Zrotation Yrotation Xrotation
					JOINT RightToeBase
					{
						OFFSET -0.25383 -0.69740 1.96384
						CHANNELS 3 Zrotation Yrotation Xrotation
						End Site
						{
							OFFSET -0.00000 -0.00000 1.04244
						}
					}
				}
			}
		}
	}
	JOINT LowerBack
	{
		OFFSET 0 0 0
		CHANNELS 3 Zrotation Yrotation Xrotation
		JOINT Spine
		{
			OFFSET 0.00579 2.14458 -0.24367
			CHANNELS 3 Zrotation Yrotation Xrotation
			JOINT Spine1
			{
				OFFSET 0.05899 2.16316 -0.04515
				CHANNELS 3 Zrotation Yrotation Xrotation
				JOINT Neck
				{
					OFFSET 0 0 0
					CHANNELS 3 Zrotation Yrotation Xrotation
					JOINT Neck1
					{
						OFFSET -0.01650 1.59577 0.24841
						CHANNELS 3 Zrotation Yrotation Xrotation
						JOINT Head
						{
							OFFSET -0.01016 1.63072 -0.17782
							CHANNELS 3 Zrotation Yrotation Xrotation
							End Site
							{
								OFFSET -0.00250 1.64111 -0.08717
							}
						}
					}
				}
				JOINT LeftShoulder
				{
					OFFSET 0 0 0
					CHANNELS 3 Zrotation Yrotation Xrotation
					JOINT LeftArm
					{
						OFFSET 3.17745 0.95174 -0.45729
						CHANNELS 3 Zrotation Yrotation Xrotation
						JOINT LeftForeArm
						{
							OFFSET 4.93485 -0.00000 0.00000
							CHANNELS 3 Zrotation Yrotation Xrotation
							JOINT LeftHand
							{
								OFFSET 3.41719 -0.00000 -0.00000
								CHANNELS 3 Zrotation Yrotation Xrotation
								JOINT LeftFingerBase
								{
									OFFSET 0 0 0
									CHANNELS 3 Zrotation Yrotation Xrotation
									JOINT LeftHandIndex1
									{
										OFFSET 0.62410 -0.00000 -0.00000
										CHANNELS 3 Zrotation Yrotation Xrotation
										End Site
										{
											OFFSET 0.50317 -0.00000 -0.00000
										}
									}
								}
								JOINT LThumb
								{
									OFFSET 0 0 0
									CHANNELS 3 Zrotation Yrotation Xrotation
									End Site
									{
										OFFSET 0.51085 -0.00000 0.51085
									}
								}
							}
						}
					}
				}
				JOINT RightShoulder
				{
					OFFSET 0 0 0
					CHANNELS 3 Zrotation Yrotation Xrotation
					JOINT RightArm
					{
						OFFSET -2.87924 1.13038 -0.75204
						CHANNELS 3 Zrotation Yrotation Xrotation
						JOINT RightForeArm
						{
							OFFSET -5.22034 -0.00000 0.00000
							CHANNELS 3 Zrotation Yrotation Xrotation
							JOINT RightHand
							{
								OFFSET -3.41809 -0.00000 -0.00000
								CHANNELS 3 Zrotation Yrotation Xrotation
								JOINT RightFingerBase
								{
									OFFSET 0 0 0
									CHANNELS 3 Zrotation Yrotation Xrotation
									JOINT RightHandIndex1
									{
										OFFSET -0.77534 -0.00000 -0.00000
										CHANNELS 3 Zrotation Yrotation Xrotation
										End Site
										{
											OFFSET -0.62510 -0.00000 -0.00000
										}
									}
								}
								JOINT RThumb
								{
									OFFSET 0 0 0
									CHANNELS 3 Zrotation Yrotation Xrotation
									End Site
									{
										OFFSET -0.63464 -0.00000 0.63464
									}
								}
							}
						}
					}
				}
			}
		}
	}
}
MOTION
Frames: 12
Frame Time: .0083333
1.3514 17.3788 -34.3128 0 0 0 0 0 0 -21 0 0 0 0 0 0 0 0 0 0 0 0 0 0 21 0 0 0 0 0 0 0 0 0 0 0 0 0 0 0 0 0 0 0 0 0 0 -16 0 0 21 0 0 11 0 0 0 -8 0 0 0 0 0 0 0 0 0 0 0 0 0 0 0 0 0 0 0 0 8 0 0 0 0 0 0 0 0 0 0 0 0 0 0 0 0 0
1.3514 17.3788 -34.3128 1.3739 4.0128 4.8926 0.0000 0.0000 0.0000 -23.2470 -9.9358 -14.1480 2.6128 10.0402 29.1071 0.9392 -7.7962 -17.3510 0.0948 1.9857 5.4661 0.0000 0.0000 0.0000 21.4105 1.4793 -11.6212 -2.9923 -10.6826 31.2166 -1.6355 -10.3429 -29.8171 -0.5629 -4.8056 13.3549 1.1177 -0.1148 4.2824 -0.0337 -0.1031 0.8957 -0.6557 -0.0557 -1.4829 -9.2128 -11.6387 -8.7229 0.4816 -14.5436 16.3776 0.2552 -7.5031 7.1726 0.0000 -0.0000 0.0000 -79.9133 7.6574 20.2644 24.3918 -35.5758 -7.9333 -0.0000 -0.0000 8.5458 0.6973 35.9477 0.4093 -7.1250 0.0000 -0.0000 -38.9428 61.5544 -17.1088 0.0000 -0.0000 0.0000 73.1286 5.9914 13.5149 -12.6317 20.7452 -2.3212 0.0000 -0.0000 -17.0593 -7.8262 26.2222 -3.4754 7.1250 -0.0000 -0.0000 13.2450 -4.1374 12.6027
1.3652 17.3710 -34.3137 1.4018 4.1135 4.8480 0.0000 0.0000 0.0000 -23.3253 -9.8769 -14.2352 2.6499 10.1055 29.3191 0.9627 -8.0593 -17.5822 0.0939 1.9761 5.4395 0.0000 0.0000 0.0000 21.3029 1.4870 -11.8985 -3.1028 -10.8596 31.8078 -1.7087 -10.1995 -30.1859 -0.5738 -4.8508 13.4836 0.8414 0.0126 4.4382 0.0305 0.0573 0.8217 -0.4440 0.0246 -1.6431 -9.2087 -11.7149 -8.2105 0.5348 -14.7030 16.0128 0.2989 -7.5785 6.9771 -0.0000 -0.0000 0.0000 -79.7664 7.7858 20.6809 24.4189 -35.6041 -7.9491 -0.0000 -0.0000 8.4855 0.4880 35.2822 0.2819 -7.1250 0.0000 -0.0000 -38.3819 60.9842 -16.2977 -0.0000 -0.0000 0.0000 72.9640 5.5997 13.0144 -12.4139 20.4225 -2.2446 0.0000 -0.0000 -15.8828 -5.7232 26.1328 -2.5276 7.1250 -0.0000 -0.0000 14.4927 -4.4322 13.7867
1.3901 17.3364 -34.3071 1.4611 3.9439 4.6789 0.0000 0.0000 0.0000 -23.5178 -9.8012 -14.0238 2.6512 10.1077 29.3262 0.9694 -8.1096 -17.6459 0.0976 2.0146 5.5460 0.0000 0.0000 0.0000 21.0787 1.1458 -12.2728 -3.2519 -11.0921 32.5912 -1.6973 -10.0564 -30.0105 -0.3937 -4.0286 11.1572 0.6045 0.1875 4.3772 0.0465 0.2785 0.9289 -0.3069 0.1369 -1.4972 -9.1718 -11.8495 -8.1829 0.5915 -14.9061 16.0555 0.2893 -7.6697 6.9973 -0.0000 0.0000 0.0000 -79.6442 7.9993 20.8745 24.6937 -35.8893 -8.1097 -0.0000 -0.0000 7.9370 -0.1203 36.5538 -0.0716 -7.1250 0.0000 -0.0000 -40.4523 61.8145 -18.1457 -0.0000 0.0000 0.0000 72.7612 5.5063 12.3422 -11.9778 19.7713 -2.0948 0.0000 -0.0000 -14.1294 -3.4409 26.2381 -1.5227 7.1250 -0.0000 -0.0000 15.8398 -4.5291 15.1418
1.4113 17.3329 -34.3037 1.6781 3.9628 4.6387 0.0000 0.0000 0.0000 -23.8282 -9.5453 -14.0427 2.6579 10.1195 29.3647 0.9930 -8.1099 -17.8542 0.1261 2.2895 6.3064 0.0000 0.0000 0.0000 20.6813 1.1080 -12.5957 -3.3855 -11.2945 33.2795 -1.7885 -9.5943 -30.2712 -0.4667 -4.3816 12.1527 0.4480 0.1099 4.4814 -0.0821 0.1663 0.9343 -0.3450 0.0813 -1.5510 -9.2139 -11.7752 -8.1425 0.8253 -14.8401 15.8670 0.3831 -7.6215 6.9471 0.0000 -0.0000 0.0000 -79.3650 8.2912 20.8411 24.7743 -35.9724 -8.1570 -0.0000 -0.0000 7.7705 -0.0833 36.4828 -0.0495 -7.1250 0.0000 -0.0000 -40.3309 61.7697 -18.0384 0.0000 -0.0000 0.0000 72.7527 5.6081 12.3370 -11.5931 19.1916 -1.9665 0.0000 -0.0000 -12.8890 -1.1489 26.5200 -0.5130 7.1250 -0.0000 -0.0000 17.1754 -4.4310 16.5750
1.4326 17.3172 -34.2965 2.0302 3.7848 4.5252 0.0000 0.0000 0.0000 -24.3138 -9.2893 -13.8996 2.6561 10.1163 29.3542 0.9879 -8.3335 -17.8291 0.1185 2.2193 6.1120 0.0000 0.0000 0.0000 20.1377 1.0340 -12.8685 -3.5427 -11.5256 34.0738 -1.8088 -9.3203 -30.2133 -0.3903 -4.0114 11.1087 0.0021 0.2771 4.5105 -0.1968 0.3662 0.9969 -0.2240 0.1828 -1.5033 -9.1998 -11.7376 -8.6275 0.7748 -14.7465 16.5163 0.3223 -7.5772 7.2325 -0.0000 0.0000 0.0000 -79.0921 8.3877 21.1983 24.8476 -36.0478 -8.2000 -0.0000 -0.0000 7.3868 0.3525 36.5694 0.2100 -7.1250 0.0000 -0.0000 -40.0158 61.9463 -18.0387 -0.0000 0.0000 0.0000 72.6968 5.4360 12.2652 -11.3181 18.7741 -1.8770 0.0000 -0.0000 -11.7649 -0.0768 26.7919 -0.0346 7.1250 -0.0000 -0.0000 17.7900 -4.2430 17.2971
1.4470 17.3033 -34.2940 2.0936 3.8023 4.3423 0.0000 0.0000 0.0000 -24.4528 -8.7350 -13.8738 2.6535 10.1118 29.3396 1.0680 -8.7656 -18.5558 0.0452 1.3724 3.7741 0.0000 0.0000 0.0000 19.9513 1.0274 -13.0410 -3.6912 -11.7377 34.8102 -1.8978 -8.9305 -30.5175 -0.4243 -4.1808 11.5859 -0.0723 0.2945 4.7421 -0.2774 0.3840 1.0229 -0.2672 0.1918 -1.6059 -8.9692 -11.9836 -8.7794 0.4759 -15.0534 16.6576 0.1496 -7.7339 7.2774 0.0000 -0.0000 0.0000 -78.7630 8.4636 21.3291 24.8088 -36.0079 -8.1772 -0.0000 -0.0000 7.2360 0.1787 36.5804 0.1065 -7.1250 0.0000 -0.0000 -40.1966 61.9105 -18.1011 0.0000 -0.0000 0.0000 72.7780 5.3819 12.0456 -11.0280 18.3312 -1.7847 0.0000 -0.0000 -10.4824 0.5408 26.7216 0.2432 7.1250 -0.0000 -0.0000 18.1472 -4.3480 17.6463
1.4609 17.2882 -34.2843 2.2722 3.8185 4.2065 0.0000 0.0000 0.0000 -24.7249 -8.7453 -13.6228 2.6357 10.0805 29.2379 1.0631 -8.8823 -18.5265 0.0809 1.8350 5.0500 0.0000 0.0000 0.0000 19.5951 0.8960 -13.3345 -3.8594 -11.9709 35.6290 -1.9425 -8.4215 -30.4708 -0.4123 -4.1218 11.4195 -0.5139 0.3503 4.6547 -0.2570 0.4381 1.0953 -0.0010 0.2203 -1.4859 -9.2601 -11.8702 -8.4328 0.9838 -14.9714 16.2914 0.3897 -7.6726 7.1577 -0.0000 0.0000 0.0000 -78.6689 8.5701 21.3308 24.7385 -35.9355 -8.1360 -0.0000 -0.0000 7.2529 0.1969 36.8563 0.1181 -7.1250 0.0000 -0.0000 -40.5160 62.1253 -18.4772 -0.0000 0.0000 0.0000 72.7336 5.2213 12.1517 -10.7879 17.9624 -1.7099 0.0000 -0.0000 -9.4702 1.4937 27.3833 0.6871 7.1250 -0.0000 -0.0000 18.6735 -3.7751 18.4286
1.4774 17.2768 -34.2773 2.5225 3.6402 4.0379 0.0000 0.0000 0.0000 -25.1021 -8.3893 -13.4366 2.6203 10.0534 29.1497 1.0747 -8.9615 -18.6313 0.0775 1.7953 4.9404 0.0000 0.0000 0.0000 19.1742 0.7556 -13.5975 -4.0320 -12.2028 36.4533 -1.9457 -8.0850 -30.2801 -0.4271 -4.1940 11.6232 -0.8009 0.3675 4.8059 -0.3792 0.4432 1.0710 0.0332 0.2241 -1.5966 -9.2237 -11.9261 -8.6272 0.8117 -15.0125 16.6777 0.3008 -7.7037 7.3035 -0.0000 0.0000 0.0000 -78.5164 8.8584 20.9717 24.5780 -35.7695 -8.0419 -0.0000 -0.0000 7.3197 0.2533 36.2554 0.1498 -7.1250 0.0000 -0.0000 -39.7347 61.6806 -17.6391 -0.0000 0.0000 0.0000 72.8063 4.8189 12.8258 -10.7616 17.9219 -1.7018 0.0000 -0.0000 -9.0762 2.8372 26.6578 1.2738 7.1250 -0.0000 -0.0000 19.4624 -4.5309 19.0191
1.4941 17.2655 -34.2666 2.8008 3.4645 3.8320 0.0000 0.0000 0.0000 -25.4931 -7.9237 -13.2394 2.5893 9.9984 28.9716 1.1128 -9.1646 -18.9686 0.0558 1.5245 4.1933 0.0000 0.0000 0.0000 18.6865 0.8210 -13.7892 -4.2263 -12.4556 37.3634 -1.9923 -7.6030 -30.2790 -0.2679 -3.3293 9.1970 -1.1015 0.4893 4.9533 -0.5087 0.5862 1.1209 0.0591 0.2965 -1.6302 -9.5842 -11.9133 -8.2339 1.4672 -15.0871 16.1985 0.5846 -7.7100 7.1640 0.0000 -0.0000 0.0000 -78.1276 9.1145 21.4369 24.7120 -35.9082 -8.1204 -0.0000 -0.0000 6.7925 0.9085 36.6033 0.5417 -7.1250 0.0000 -0.0000 -39.5190 62.1139 -17.9312 0.0000 -0.0000 0.0000 73.0839 4.7158 11.9817 -10.4632 17.4608 -1.6112 0.0000 -0.0000 -7.5589 3.3221 27.0512 1.5122 7.1250 -0.0000 -0.0000 19.7210 -4.1813 19.4428
1.5102 17.2563 -34.2656 3.0995 3.6967 3.6951 0.0000 0.0000 0.0000 -25.8985 -7.8354 -13.0391 2.5709 9.9657 28.8656 1.0970 -9.2230 -18.8446 0.0455 1.3763 3.7848 0.0000 0.0000 0.0000 18.1876 0.5598 -14.1375 -4.4113 -12.6885 38.2135 -1.9765 -7.4464 -30.0858 -0.3490 -3.7955 10.5020 -1.4238 0.4534 5.0942 -0.6412 0.5170 1.1428 0.1071 0.2633 -1.6874 -9.4625 -11.8625 -8.3612 1.4388 -15.0219 16.3412 0.5539 -7.6732 7.2165 0.0000 0.0000 0.0000 -77.9674 9.0748 21.1491 24.4721 -35.6596 -7.9801 -0.0000 -0.0000 7.0170 0.7554 36.0085 0.4441 -7.1250 0.0000 -0.0000 -38.9577 61.6162 -17.1738 0.0000 0.0000 0.0000 73.2726 4.3486 12.2787 -10.4442 17.4314 -1.6055 0.0000 -0.0000 -7.3496 3.9545 27.4823 1.8272 7.1250 -0.0000 -0.0000 20.0584 -3.8016 19.9725
1.5248 17.2526 -34.2560 3.2372 3.7117 3.6384 0.0000 0.0000 0.0000 -26.1132 -7.6446 -12.8866 2.5439 9.9173 28.7093 1.1185 -9.2832 -19.0275 0.0516 1.4658 4.0314 0.0000 0.0000 0.0000 17.8802 0.5142 -14.4990 -4.6007 -12.9195 39.0678 -1.9937 -7.1535 -30.0212 -0.2870 -3.4454 9.5214 -1.6138 0.4166 5.0006 -0.6989 0.4606 1.2384 0.1592 0.2346 -1.5371 -9.5579 -11.8968 -8.4839 1.6581 -15.0776 16.1827 0.6254 -7.6850 7.2136 0.0000 -0.0000 0.0000 -77.7486 8.9949 21.0593 24.2376 -35.4145 -7.8438 -0.0000 -0.0000 6.8156 0.8211 35.8281 0.4807 -7.1250 0.0000 -0.0000 -38.6835 61.4925 -16.9182 0.0000 -0.0000 0.0000 73.4859 4.3484 12.2341 -10.2495 17.1288 -1.5476 0.0000 -0.0000 -6.8424 4.1430 27.3111 1.9035 7.1250 -0.0000 -0.0000 20.1716 -3.9707 20.0344
